PathFileType	4	(X/Y/Z)	Run_200 01
DataRate	CameraRate	NumFrames	NumMarkers	Units	OrigDataRate	OrigDataStartFrame	OrigNumFrames
120	120	8	42	mm	120	161	128
Frame#	Time	LASI			RASI			LPSI			RPSI			RTH1			RTH2			RTH3			LTH1			LTH2			LTH3			RTB1			RTB2			RTB3			LTB1			LTB2			LTB3			RCAL			RTOE			RMT5			LCAL			LTOE			LMT5			LACR			RACR			CLAV			C7			RUA1			RUA2			RUA3			RLEL			LUA1			LUA2			LUA3			LLEL			RFAsuperior			RFAradius			RFAulna			LFAsuperior			LFAradius			LFAulna			LMEL			RMEL		
		X1	Y1	Z1	X2	Y2	Z2	X3	Y3	Z3	X4	Y4	Z4	X5	Y5	Z5	X6	Y6	Z6	X7	Y7	Z7	X8	Y8	Z8	X9	Y9	Z9	X10	Y10	Z10	X11	Y11	Z11	X12	Y12	Z12	X13	Y13	Z13	X14	Y14	Z14	X15	Y15	Z15	X16	Y16	Z16	X17	Y17	Z17	X18	Y18	Z18	X19	Y19	Z19	X20	Y20	Z20	X21	Y21	Z21	X22	Y22	Z22	X23	Y23	Z23	X24	Y24	Z24	X25	Y25	Z25	X26	Y26	Z26	X27	Y27	Z27	X28	Y28	Z28	X29	Y29	Z29	X30	Y30	Z30	X31	Y31	Z31	X32	Y32	Z32	X33	Y33	Z33	X34	Y34	Z34	X35	Y35	Z35	X36	Y36	Z36	X37	Y37	Z37	X38	Y38	Z38	X39	Y39	Z39	X40	Y40	Z40	X41	Y41	Z41	X42	Y42	Z42	

161	  1.341667	1068.903249	1026.194086	-430.042819	1057.045907	1019.864027	-193.266828	899.024621	1057.902217	-373.950281	893.633477	1056.753727	-274.416552	1002.704799	852.227663	-155.531060	1061.314669	706.174642	-200.011078	997.200142	616.955016	-210.516551	1042.235149	860.914243	-496.800451	1145.894350	787.102008	-474.270641	1106.417356	646.830645	-455.297094	925.601099	407.586599	-273.679301	846.687085	422.921099	-216.600173	761.598163	330.090328	-274.422046	1192.609466	420.609201	-382.928575	1147.596857	323.944390	-429.602520	1157.095067	227.557759	-360.454801	584.737861	366.704801	-291.824555	665.821923	175.372550	-325.559811	627.774604	163.630776	-224.617957	1025.352657	116.466978	-353.579304	1221.875019	 79.333659	-294.505857	1221.488054	 39.293398	-397.132898	1039.530774	1492.477720	-517.576656	1066.999665	1496.733162	-157.009660	1117.721183	1444.950007	-320.019959	1010.454131	1532.535399	-343.623166	1035.215102	1421.872196	-105.385868	1028.383011	1330.653140	-112.801734	943.642313	1346.475900	-90.145945	905.301919	1239.350527	-57.998636	981.377325	1446.980382	-568.876034	912.242627	1421.890897	-525.713787	924.301080	1357.757774	-583.318422	810.809256	1301.687418	-596.326198	992.224779	1196.786147	-63.449189	1119.898900	1081.291029	-122.785435	1072.247728	1033.488498	-113.168540	876.194832	1252.931500	-604.460472	1025.698212	1137.195932	-543.766016	976.116051	1091.905716	-557.221336	797.351204	1306.721765	-523.952579	880.076927	1238.452681	-126.239448	
162	  1.350000	1069.159512	1018.327433	-430.002020	1057.257426	1013.416280	-193.511712	899.065571	1049.711788	-373.861937	893.476610	1048.513311	-274.702367	1005.250416	844.920834	-154.976369	1067.505730	700.093550	-197.307275	1005.976748	609.558941	-209.419261	1042.699949	853.673224	-494.999801	1145.735381	781.049600	-471.644204	1106.400834	640.079635	-454.342251	936.353711	403.273680	-270.642432	857.360530	421.558360	-214.335057	770.003172	330.769045	-271.225976	1186.023395	411.024529	-379.735178	1137.083497	316.153596	-426.671578	1141.257722	219.423387	-357.453751	593.889427	372.167569	-290.190756	671.116938	178.596994	-320.266179	632.859627	169.632193	-219.020847	1005.340284	109.014722	-352.144348	1203.477172	 77.405719	-293.765230	1204.348855	 40.118491	-397.898317	1040.866474	1484.328032	-518.411156	1066.173558	1489.161352	-156.978349	1117.816995	1437.352384	-319.984324	1010.410495	1525.350254	-344.545870	1033.385791	1414.259046	-105.671065	1024.645301	1322.786563	-115.051535	940.651954	1340.267391	-91.255691	900.000927	1234.392262	-59.553982	983.469802	1437.146040	-570.149500	913.529366	1411.805586	-528.364280	927.520114	1347.140234	-585.076822	814.935636	1290.190040	-599.389294	985.369543	1188.777630	-63.479158	1109.566901	1067.371758	-119.324125	1059.438379	1021.929074	-110.194234	881.117100	1242.210536	-606.359630	1031.330547	1129.485690	-542.922924	982.879725	1083.032844	-556.759724	800.329565	1295.250900	-527.218554	875.215157	1233.675318	-127.826878	
163	  1.358333	1069.246125	1010.113575	-430.312608	1057.231008	1006.645036	-194.112618	898.947648	1041.088289	-374.062933	892.972195	1039.742041	-275.301740	1007.228007	837.383694	-154.399553	1073.672913	693.895859	-194.314081	1014.872811	601.988221	-208.210379	1043.013005	845.189086	-493.741608	1145.092699	772.756859	-469.653530	1105.328635	631.783719	-453.544446	947.741009	398.933536	-267.237046	868.735429	419.892959	-211.648603	779.410169	331.054319	-267.991755	1178.277402	401.105071	-376.321102	1125.324515	308.761457	-423.841892	1124.897075	211.818687	-354.410535	604.133785	376.704556	-288.821044	677.959069	181.114965	-314.688409	639.587874	175.149803	-213.186406	985.210068	101.736567	-350.412658	1185.326832	 76.546420	-293.167645	1186.970691	 41.212072	-398.172379	1042.154020	1475.989509	-519.289299	1064.948520	1481.380616	-156.671596	1117.917787	1429.550218	-319.785586	1010.172802	1517.839235	-345.494931	1031.142715	1406.095795	-105.905686	1020.552015	1314.566359	-117.234492	937.285728	1333.558704	-92.417189	894.525117	1228.993479	-61.356168	985.560961	1426.838537	-571.341385	914.853037	1401.090834	-531.092477	930.989711	1335.780109	-586.700197	819.562976	1277.883630	-602.457837	978.174506	1180.169007	-63.391472	1098.444466	1052.930828	-115.723659	1045.800818	1010.083767	-107.252079	886.476441	1230.705341	-608.214385	1037.339547	1121.061230	-541.887119	990.063574	1073.460142	-556.145387	803.630944	1282.950946	-530.522404	870.207557	1228.407228	-129.555832	
164	  1.366667	1069.057897	1001.854439	-430.956249	1056.835508	999.553443	-194.921313	898.579969	1032.394664	-374.567553	891.942289	1030.588961	-276.010426	1008.751783	829.805624	-153.887837	1079.926389	687.881055	-191.189236	1024.055432	594.495983	-206.774186	1043.118570	836.132309	-493.214169	1143.917226	762.277382	-468.687650	1102.873598	622.111217	-452.404646	959.707748	394.729602	-263.542874	880.756928	418.071410	-208.529562	789.819513	331.014702	-264.803393	1169.537727	391.372335	-372.702156	1113.241663	301.798616	-420.924652	1109.073076	205.038654	-351.213844	615.270718	380.190343	-287.671155	686.425278	182.957750	-308.959091	648.125688	180.054869	-207.215264	966.068590	 95.818771	-348.273507	1167.844988	 75.615671	-292.150902	1169.694951	 42.023937	-397.758922	1043.353645	1467.670025	-520.238433	1063.245488	1473.623395	-156.201074	1118.058899	1421.766460	-319.372075	1009.844054	1510.276589	-346.410846	1028.471108	1397.587015	-106.120925	1016.295341	1306.449804	-118.670502	933.522873	1326.486961	-93.670100	888.971221	1223.275594	-63.449151	987.708953	1416.076739	-572.494287	916.288205	1389.748098	-533.882589	934.779191	1323.772578	-588.137433	824.747012	1264.897809	-605.467888	970.663681	1171.081214	-63.173382	1086.564719	1038.153446	-111.983967	1031.408752	998.065566	-104.420084	892.325994	1218.523782	-609.946670	1043.847605	1112.076319	-540.639431	997.737898	1063.353385	-555.284153	807.237277	1270.006246	-533.750097	865.084663	1222.812789	-131.335417	
165	  1.375000	1068.512455	994.074910	-431.776022	1056.053323	992.149827	-195.673396	897.873873	1024.214320	-375.246408	890.497688	1021.548700	-276.689671	1010.039048	822.259402	-153.473649	1086.396778	682.364462	-188.064569	1033.687472	587.439282	-204.890546	1042.790552	827.519739	-493.272832	1141.749830	750.641298	-468.848685	1098.785947	611.888175	-450.359150	972.201586	390.924319	-259.721848	893.339780	416.230206	-205.103352	801.208665	330.684003	-261.689711	1160.339005	382.373436	-369.069991	1101.548547	295.135142	-417.783990	1094.104782	199.136995	-347.858539	627.097318	382.494538	-286.673390	696.543707	184.115217	-303.222336	658.520985	184.179917	-201.236946	948.175641	 91.886953	-345.862728	1150.981172	 74.297748	-290.624299	1152.593938	 42.502267	-396.896046	1044.431740	1459.577067	-521.271078	1061.000451	1466.131795	-155.743977	1118.235722	1414.246636	-318.730956	1009.538979	1502.951175	-347.251423	1025.385946	1389.098249	-106.373953	1012.053687	1298.875649	-119.041971	929.417595	1319.216493	-95.118647	883.453948	1217.362964	-65.862743	990.019756	1404.852562	-573.574591	917.908489	1377.833235	-536.733754	938.992441	1311.298098	-589.349439	830.542297	1251.380048	-608.370061	962.831129	1161.659551	-62.878843	1073.937137	1023.223458	-108.147078	1016.340346	986.023638	-101.735671	898.788863	1205.815076	-611.439984	1050.969108	1102.726794	-539.157506	1005.999451	1052.907089	-554.122528	811.195269	1256.553150	-536.840040	859.866007	1217.009500	-133.097347	
166	  1.383333	1067.571747	987.392352	-432.472362	1054.957791	984.551267	-196.085666	896.778958	1017.181572	-375.820302	889.032128	1013.367305	-277.324456	1011.361366	814.808588	-153.090557	1093.195181	677.665082	-185.056168	1043.871076	581.256887	-202.339841	1041.586786	820.283147	-493.647178	1138.023631	739.623345	-469.915526	1093.167765	602.433466	-447.352384	985.194414	387.902643	-255.932335	906.378796	414.494694	-201.587173	813.515368	330.062758	-258.620213	1151.337486	374.513911	-365.830528	1090.387768	288.879649	-414.692839	1079.748279	194.123209	-344.668873	639.465317	383.498821	-285.741048	708.309325	184.522672	-297.602439	670.672427	187.318827	-195.409915	931.158410	 89.889717	-343.614559	1134.412017	 72.922320	-288.975778	1135.603486	 42.773880	-395.985902	1045.386908	1451.874424	-522.377735	1058.231852	1459.161521	-155.432640	1118.405636	1407.243137	-317.909686	1009.329871	1496.108882	-348.030102	1021.940206	1381.132502	-106.736764	1007.902024	1292.118150	-118.679923	925.123634	1311.998581	-96.832401	878.096540	1211.384130	-68.603303	992.623654	1393.284330	-574.482533	919.794128	1365.531855	-539.658841	943.745982	1298.657848	-590.328522	837.024323	1237.497229	-611.146689	954.699274	1152.112891	-62.624408	1060.553823	1008.337881	-104.282045	1000.659375	974.165989	-99.187027	906.085857	1192.819842	-612.549534	1058.786833	1093.255952	-537.346033	1014.963572	1042.362764	-552.639814	815.656120	1242.655854	-539.827336	854.746225	1211.053965	-134.923838	
167	  1.391667	1066.273939	982.235816	-432.695427	1053.635836	977.052682	-195.980207	895.318692	1011.696107	-375.965008	887.930786	1006.691259	-277.895509	1012.914988	807.744089	-152.603590	1100.351890	674.098069	-182.266545	1054.580777	576.386526	-199.072185	1039.022099	814.821278	-494.112742	1132.670453	730.946489	-471.417722	1086.672610	595.003319	-444.186981	998.673938	386.059495	-252.281948	919.769873	413.005431	-198.170920	826.630841	329.145449	-255.547508	1142.919215	367.966051	-363.579623	1079.482533	283.550336	-412.361365	1065.715938	190.132527	-342.290935	652.305009	383.114267	-284.776845	721.694872	184.082687	-292.189793	684.380723	189.246753	-189.899292	914.534010	 89.345116	-342.047382	1117.849254	 71.879216	-287.808957	1118.689643	 42.894743	-395.373214	1046.258298	1444.670123	-523.525619	1055.075005	1452.952833	-155.312176	1118.508146	1400.994591	-316.997266	1009.213714	1489.931534	-348.804252	1018.222843	1374.200913	-107.272042	1003.835132	1286.269251	-118.296693	920.849466	1305.178838	-98.812409	873.010916	1205.504981	-71.650567	995.602218	1381.769419	-575.105369	922.057891	1353.163534	-542.605783	949.124470	1286.271503	-591.102232	844.302650	1223.448279	-613.804162	946.397015	1142.759881	-62.564650	1046.405776	993.738205	-100.464412	984.404854	962.766203	-96.750263	914.489259	1179.907176	-613.121202	1067.340133	1083.976888	-535.029145	1024.748384	1032.038701	-550.805005	820.838468	1228.380846	-542.810830	850.230524	1205.011016	-137.070775	
168	  1.400000	1064.742221	978.641483	-432.212114	1052.144283	970.099986	-195.365847	893.599551	1007.737091	-375.460613	887.222286	1001.743829	-278.196423	1014.689329	801.650329	-151.943277	1107.770887	671.934394	-179.766224	1065.629397	573.146218	-195.316584	1034.874247	810.871850	-494.491507	1126.462593	725.407698	-472.823734	1080.335485	590.146019	-442.212097	1012.602126	385.593390	-248.829195	933.425012	411.921567	-194.942646	840.425494	327.942902	-252.464733	1134.986515	362.715855	-362.933822	1068.576345	279.764666	-411.472618	1051.941134	187.356386	-341.337484	665.596266	381.286278	-283.692594	736.657357	182.707328	-287.047533	699.461517	189.769504	-184.830743	898.050366	 89.675518	-341.439026	1101.207513	 71.246437	-287.572317	1101.892165	 42.822667	-395.221543	1047.118243	1438.052149	-524.659245	1051.753988	1447.680145	-155.368794	1118.492654	1395.691118	-316.080413	1009.127612	1484.553778	-349.618669	1014.351141	1368.642277	-107.998181	999.866354	1281.329222	-118.408946	916.767279	1299.124434	-101.059504	868.270861	1199.972301	-74.958065	998.912293	1370.971253	-575.381290	924.838612	1341.124150	-545.365939	955.136176	1274.623855	-591.702070	852.500852	1209.498109	-616.344665	938.180793	1134.029906	-62.861888	1031.499567	979.738092	-96.783321	967.602981	952.162274	-94.447781	924.189091	1167.560637	-613.036971	1076.624199	1075.305565	-532.024595	1035.453145	1022.352208	-548.540205	826.946359	1213.926163	-545.863688	846.935909	1199.070615	-139.824086	
